<svg fill="none" xmlns="http://www.w3.org/2000/svg" viewBox="0 0 10 10">
  <rect width="10" height="10" rx="3" fill="#050505"/>
  <rect x="1.5" y="5" width="3" height="3" rx=".25" fill="#fff"/>
  <rect x="5.5" y="5" width="3" height="3" rx="1.5" fill="#fff"/>
  <path d="M4.654 1.6c.113-.197.17-.295.244-.328a.25.25 0 01.204 0c.074.033.13.131.244.328l1.04 1.8c.113.197.17.295.162.376a.25.25 0 01-.102.176C6.38 4 6.266 4 6.039 4H3.961c-.228 0-.341 0-.407-.048a.25.25 0 01-.102-.176c-.008-.08.049-.18.162-.376l1.04-1.8z" fill="#fff"/>
</svg>
